<svg height="512" viewBox="0 0 57 57" width="512" xmlns="http://www.w3.org/2000/svg"><g id="Page-1" fill="none" fill-rule="evenodd"><g id="038---Torch" transform="translate(0 -1)"><path id="Shape" d="m21.76 28.33-20.24 21.36c-1.70171858 1.8693949-1.72781202 4.7187363-.06061471 6.6189827s4.49571731 2.2450685 6.57061471.8010173l13.58-10.36.8-.61.82-.57 1.87-1.29.83-.57.83-.57 4.97-3.44z" fill="#a59078" fill-rule="nonzero"/><path id="Shape" d="m46.84 32.6131c-3.034333.6713489-6.2081023.2547705-8.9664-1.1769-6.2237-3.1619-9.84-10.85-8.1153-17.0594 1.04608-3.5582694 4.0521845-6.19293968 7.7169-6.7634 2.981-.5211 6.1482-.3335 9.1078-.9357 2.0699364-.35150653 4.0143984-1.23038721 5.6459-2.5519.8392201-.71458105 1.5761302-1.54123272 2.19-2.4567.0374-.0568.0849-.1253.14-.2033.2332419-.35702281.660806-.53547161 1.07865-.45018698.417844.08528464.741277.41701676.81595.83688698.2976714 2.10724628.4801094 4.22916873.5465 6.3563v.0571c-.0533.9766-.459 4.3232-3.5029 5.0855-2.2387.5543-6.515 2.63-3.9807 5.8781 1.796 2.31 5.8494 1.1882 6.9385-.7429l.0707.0235c-.9396 6.4199-3.4492 12.5907-9.6856 14.103z" fill="#e57e25"/><path id="Shape" d="m57 8.21v.06c-.04.85-.36 3.5-2.46 4.67-3.16-.36-21.62-1.78-21.17 14.96-3.31-3.77-4.86-9.03-3.61-13.52 1.045762-3.5608754 4.0530674-6.19811089 7.72-6.77 2.98-.52 6.14-.33 9.1-.93 2.0700241-.35411264 4.0150288-1.23194662 5.65-2.55.8400163-.71501678 1.5770109-1.54287369 2.19-2.46.0422379-.06965967.0890052-.13647011.14-.2.230925-.35757979.6570875-.53749888 1.0744-.45359477.4173125.0839041.7408216.4145508.8156.83359477.3022986 2.1080266.4859213 4.23137263.55 6.36z" fill="#f29c1f"/><g fill-rule="nonzero"><path id="Shape" d="m41.399 35.5308-14.2443-16.2436c-.2217054-.2527563-.5498563-.3858162-.8849857-.3588475-.3351295.0269688-.63778.2107909-.8162143.4957475l-3.0347 4.8465c-1.2463827 1.9905684-1.0394913 4.5630121.509 6.3288l.968 1.1038 2.384 2.7186 3.352 3.8225c1.5484817 1.7658198 4.0718953 2.3068648 6.2082 1.3311l5.2013-2.3754c.3059456-.1396964.5277997-.4158564.5982733-.74472.0704735-.3288636-.0187368-.671683-.2405733-.92448z" fill="#547580"/><path id="Shape" d="m26.76 43.14-.83.57-.83.57-2.62-2.99c-.3645079-.416975-.321975-1.0504921.095-1.415s1.0504921-.321975 1.415.095l2.7 3.08c.02.03.05.06.07.09z" fill="#7f6e5d"/><path id="Shape" d="m23.23 45.57-.82.57-.8.61-3.03-3.46c-.2473138-.2679221-.3292006-.649216-.2136989-.9950565.1155018-.3458405.4100826-.6014039.7687627-.6669397.35868-.0655358.7246003.069345.9549362.3519962l3.08 3.51c.02.03.04.05.06.08z" fill="#7f6e5d"/></g></g></g></svg>