<svg enable-background="new 0 0 100 100" height="512" viewBox="0 0 100 100" width="512" xmlns="http://www.w3.org/2000/svg"><path d="m86.7540817 27.1092625v14.6820316h-73.5092554v-22.4286613c0-2.1391716 1.7341413-3.873312 3.873311-3.873312h22.9419556c2.1391716 0 3.8733101 1.7341404 3.8733101 3.873312v.0000076c0 2.1391697 1.7341423 3.8733101 3.8733139 3.8733101h35.0740509c2.1391678 0 3.8733139 1.7341423 3.8733139 3.873312z" fill="#d6b24e"/><path d="m18.113396 27.578899h63.772114v11.375984h-63.772114z" fill="#e6e7e8"/><path d="m88.8942795 34.482914h-77.788579c-.8854313 0-1.5839443.7529488-1.517601 1.6359482l3.530282 46.7022133c.0715828.9530029.8656273 1.6896057 1.8212109 1.6896057h70.1208191c.9555817 0 1.7496109-.7366028 1.8211899-1.6896057l3.530304-46.7022133c.0663203-.8829995-.6321889-1.6359482-1.5176259-1.6359482z" fill="#ffd25a"/><circle cx="50" cy="59.617" fill="#d6b24e" r="16.653"/><g fill="#e6e7e8"><path d="m40.8509331 59.6166191 4.7780228-4.7778664c.5469666-.5469704.5469666-1.4339104 0-1.9808769-.5471191-.546814-1.4337578-.546814-1.9808769 0l-5.7683067 5.7683067c-.2626152.2627716-.4101868.6190033-.4101868.9904366s.1475716.7276688.4101868.9904404l5.7683067 5.7681541c.2735596.273407.6319237.4101868.9904404.4101868.3585129 0 .716877-.1367798.9904366-.4101868.5469666-.5471191.5469666-1.4339066 0-1.9808731z"/><path d="m62.1202278 58.6261063-5.7683067-5.7681541c-.2735596-.273407-.6319237-.4101868-.9904404-.4101868-.3585129 0-.716877.1367798-.9904366.4101868-.5469666.5471191-.5469666 1.4339066 0 1.9808769l4.7780228 4.7777176-4.7780228 4.7778702c-.5469666.5469666-.5469666 1.4339066 0 1.9808731.5471191.546814 1.4337578.546814 1.9808769 0l5.7683067-5.7683067c.2626152-.2627716.4101868-.6190071.4101868-.9904366.0000001-.3714333-.1475715-.7276688-.4101867-.9904404z"/><path d="m54.8793907 59.616581c0-.7735634-.6270599-1.4006233-1.4006233-1.4006233h-6.9575348c-.7735634 0-1.4006233.6270599-1.4006233 1.4006233 0 .7735672.6270599 1.4006271 1.4006233 1.4006271h6.9575348c.7735634 0 1.4006233-.6270599 1.4006233-1.4006271z"/></g></svg>