<svg id="Layer_1" enable-background="new 0 0 507.192 507.192" height="512" viewBox="0 0 507.192 507.192" width="512" xmlns="http://www.w3.org/2000/svg"><path d="m147.548 51.786v-35.296c0-9.107-7.383-16.49-16.49-16.49s-16.49 7.383-16.49 16.49v99.476c0 9.107-7.383 16.49-16.49 16.49s-16.49-7.383-16.49-16.49v-64.18h-64.55c-9.107 0-16.491 7.383-16.491 16.49v422.426c0 9.107 7.383 16.49 16.491 16.49h220.069v-455.406zm-5.219 308.99c0 8.837-7.164 16-16 16s-16-7.163-16-16v-118.073c-15.277-.964-20.49-20.775-7.953-29.233l15.004-10.123c10.606-7.155 24.949.456 24.949 13.264z"/><path d="m490.155 51.786h-63.743v64.18c0 9.107-7.383 16.49-16.49 16.49s-16.49-7.383-16.49-16.49c0-10.81 0-88.631 0-99.476 0-9.107-7.383-16.49-16.49-16.49s-16.49 7.383-16.49 16.49v35.296h-90.365v455.406h220.069c9.107 0 16.491-7.383 16.491-16.49v-422.426c-.001-9.107-7.384-16.49-16.492-16.49zm-118.234 293.058 67.243.712c8.836.094 15.923 7.332 15.83 16.168-.095 8.969-7.526 15.977-16.168 15.83l-67.242-.712c-18.766-.198-34.033-15.627-34.033-34.395 0-12.302 6.632-23.74 17.309-29.852l49.66-28.429c2.634-1.509 12.196-4.309 16.705-16.101 8.056-21.062-11.994-41.325-32.599-35.132l-32.828 15.21c-8.019 3.715-17.53.227-21.244-7.791-3.715-8.018-.227-17.529 7.791-21.244 36.655-16.983 34.173-15.88 35.385-16.286 27.858-9.317 58.531 3.592 71.345 30.032 14.872 30.691.641 66.518-29.494 79.563-52.945 30.309-50.029 28.047-50.029 30.029-.002 1.309 1.062 2.384 2.369 2.398z"/></svg>